<svg xmlns="http://www.w3.org/2000/svg" version="1.1" xmlns:xlink="http://www.w3.org/1999/xlink" xmlns:svgjs="http://svgjs.dev/svgjs" width="1500" height="234" viewBox="0 0 1500 234"><g transform="matrix(1,0,0,1,-0.9090909090909918,0.7189779369526264)"><svg viewBox="0 0 396 62" data-background-color="#ffffff" preserveAspectRatio="xMidYMid meet" height="234" width="1500" xmlns="http://www.w3.org/2000/svg" xmlns:xlink="http://www.w3.org/1999/xlink"><g id="tight-bounds" transform="matrix(1,0,0,1,0.2400000000000091,-0.19049842773958403)"><svg viewBox="0 0 395.52 62.380996855479175" height="62.380996855479175" width="395.52"><g><svg viewBox="0 0 489.17421389618863 77.1520406018397" height="62.380996855479175" width="395.52"><g transform="matrix(1,0,0,1,93.65421389618865,6.175137266543928)"><svg viewBox="0 0 395.52 64.80176606875185" height="64.80176606875185" width="395.52"><g id="textblocktransform"><svg viewBox="0 0 395.52 64.80176606875185" height="64.80176606875185" width="395.52" id="textblock"><g><svg viewBox="0 0 395.52 34.950976156722724" height="34.950976156722724" width="395.52"><g transform="matrix(1,0,0,1,0,0)"><svg width="395.52" viewBox="1.992223044462 -36.3 416.40392074638766 36.8" height="34.950976156722724" data-palette-color="#0080ff"><path d="M11.95 0.5L11.95 0.5Q8.3 0.5 5.88-0.95 3.45-2.4 2.53-5.15 1.6-7.9 2.25-11.8L2.25-11.8Q2.35-12.3 2.5-13.08 2.65-13.85 2.8-14.3L2.8-14.3Q3.8-18.1 5.9-20.83 8-23.55 11.03-25.03 14.05-26.5 17.7-26.5L17.7-26.5Q21.75-26.5 24.13-24.83 26.5-23.15 27.28-20.18 28.05-17.2 27.25-13.3L27.25-13.3 27-12.25Q26.9-11.75 26.48-11.4 26.05-11.05 25.5-11.05L25.5-11.05 8.9-11.05Q8.9-11.05 8.88-10.9 8.85-10.75 8.8-10.65L8.8-10.65Q8.55-8.9 8.85-7.43 9.15-5.95 10.18-5.05 11.2-4.15 12.9-4.15L12.9-4.15Q14.3-4.15 15.35-4.58 16.4-5 17.07-5.55 17.75-6.1 18.1-6.45L18.1-6.45Q18.7-7.05 19-7.18 19.3-7.3 19.85-7.3L19.85-7.3 24.2-7.3Q24.65-7.3 24.9-7 25.15-6.7 25.05-6.25L25.05-6.25Q24.8-5.45 23.8-4.3 22.8-3.15 21.1-2.05 19.4-0.95 17.07-0.23 14.75 0.5 11.95 0.5ZM9.85-15.4L9.8-15.25 20.85-15.25 20.9-15.4Q21.35-17.35 20.98-18.82 20.6-20.3 19.55-21.13 18.5-21.95 16.75-21.95L16.75-21.95Q15-21.95 13.58-21.13 12.15-20.3 11.2-18.82 10.25-17.35 9.85-15.4L9.85-15.4ZM32.45 0L27.9 0Q27.2 0 26.97-0.63 26.75-1.25 27.25-1.75L27.25-1.75 38.45-13.5 32.75-24.35Q32.5-24.85 32.82-25.43 33.15-26 33.8-26L33.8-26 37.95-26Q38.55-26 38.82-25.7 39.1-25.4 39.2-25.15L39.2-25.15 43.3-17.6 50.7-25.15Q50.95-25.4 51.3-25.7 51.65-26 52.4-26L52.4-26 56.8-26Q57.45-26.05 57.7-25.4 57.95-24.75 57.4-24.2L57.4-24.2 46.6-12.85 52.4-1.65Q52.7-1.1 52.42-0.55 52.15 0 51.4 0L51.4 0 47.15 0Q46.55 0 46.27-0.28 46-0.55 45.85-0.8L45.85-0.8 41.65-8.6 34.1-0.8Q33.9-0.6 33.55-0.3 33.2 0 32.45 0L32.45 0ZM66.84 0.5L66.84 0.5Q64.25 0.5 62.45-0.38 60.65-1.25 59.62-2.85 58.6-4.45 58.3-6.63 58-8.8 58.4-11.4L58.4-11.4Q58.6-12.3 58.75-13.03 58.9-13.75 59.1-14.65L59.1-14.65Q59.75-17.15 60.82-19.3 61.9-21.45 63.47-23.08 65.05-24.7 67.17-25.6 69.3-26.5 72.05-26.5L72.05-26.5Q75.15-26.5 76.77-25.53 78.4-24.55 79.3-23.15L79.3-23.15 79.65-24.8Q79.75-25.3 80.15-25.65 80.55-26 81.05-26L81.05-26 85-26Q85.5-26 85.8-25.65 86.09-25.3 86-24.8L86-24.8 80.95-1.2Q80.84-0.7 80.45-0.35 80.05 0 79.55 0L79.55 0 75.59 0Q75.05 0 74.77-0.35 74.5-0.7 74.59-1.2L74.59-1.2 75-3.05Q73.5-1.5 71.7-0.5 69.9 0.5 66.84 0.5ZM69.09-4.85L69.09-4.85Q71.2-4.85 72.7-5.8 74.2-6.75 75.12-8.22 76.05-9.7 76.45-11.25L76.45-11.25Q76.7-12.15 76.9-13.18 77.09-14.2 77.25-15.1L77.25-15.1Q77.55-16.6 77.3-17.98 77.05-19.35 76.02-20.25 75-21.15 72.95-21.15L72.95-21.15Q71-21.15 69.62-20.23 68.25-19.3 67.34-17.8 66.45-16.3 65.9-14.5L65.9-14.5Q65.7-13.75 65.55-13 65.4-12.25 65.3-11.5L65.3-11.5Q65.05-9.7 65.17-8.2 65.3-6.7 66.22-5.78 67.15-4.85 69.09-4.85ZM92.79 0L88.59 0Q88.09 0 87.82-0.35 87.54-0.7 87.64-1.2L87.64-1.2 92.64-24.8Q92.74-25.3 93.17-25.65 93.59-26 94.09-26L94.09-26 97.99-26Q98.49-26 98.74-25.65 98.99-25.3 98.89-24.8L98.89-24.8 98.54-23.1Q99.49-24.05 100.52-24.83 101.54-25.6 102.89-26.05 104.24-26.5 106.04-26.5L106.04-26.5Q108.94-26.5 110.82-25.33 112.69-24.15 113.34-22.05L113.34-22.05Q114.94-24.05 117.04-25.28 119.14-26.5 121.94-26.5L121.94-26.5Q124.64-26.5 126.62-25.3 128.59-24.1 129.39-21.68 130.19-19.25 129.44-15.55L129.44-15.55 126.34-1.2Q126.24-0.7 125.84-0.35 125.44 0 124.94 0L124.94 0 120.84 0Q120.34 0 120.07-0.35 119.79-0.7 119.89-1.2L119.89-1.2 122.84-15.15Q123.34-17.4 123.04-18.73 122.74-20.05 121.82-20.6 120.89-21.15 119.59-21.15L119.59-21.15Q118.44-21.15 117.17-20.6 115.89-20.05 114.82-18.73 113.74-17.4 113.29-15.15L113.29-15.15 110.29-1.2Q110.19-0.7 109.79-0.35 109.39 0 108.89 0L108.89 0 104.79 0Q104.29 0 103.99-0.35 103.69-0.7 103.79-1.2L103.79-1.2 106.79-15.15Q107.24-17.4 106.92-18.73 106.59-20.05 105.69-20.6 104.79-21.15 103.49-21.15L103.49-21.15Q102.39-21.15 101.09-20.58 99.79-20 98.72-18.7 97.64-17.4 97.19-15.15L97.19-15.15 94.19-1.2Q94.09-0.7 93.69-0.35 93.29 0 92.79 0L92.79 0ZM137.89 0L133.74 0Q133.24 0 132.97-0.35 132.69-0.7 132.79-1.2L132.79-1.2 137.79-24.8Q137.89-25.3 138.32-25.65 138.74-26 139.24-26L139.24-26 143.39-26Q143.94-26 144.19-25.65 144.44-25.3 144.34-24.8L144.34-24.8 139.34-1.2Q139.24-0.7 138.84-0.35 138.44 0 137.89 0L137.89 0ZM144.54-30.3L139.94-30.3Q139.44-30.3 139.17-30.65 138.89-31 138.99-31.5L138.99-31.5 139.79-35.1Q139.89-35.6 140.29-35.95 140.69-36.3 141.24-36.3L141.24-36.3 145.79-36.3Q146.29-36.3 146.59-35.95 146.89-35.6 146.79-35.1L146.79-35.1 145.99-31.5Q145.89-31 145.47-30.65 145.04-30.3 144.54-30.3L144.54-30.3ZM151.34 0L146.94 0Q146.44 0 146.16-0.35 145.89-0.7 145.99-1.2L145.99-1.2 150.99-24.8Q151.09-25.3 151.51-25.65 151.94-26 152.44-26L152.44-26 156.54-26Q157.04-26 157.29-25.65 157.54-25.3 157.44-24.8L157.44-24.8 156.99-22.75Q158.59-24.35 160.76-25.43 162.94-26.5 165.69-26.5L165.69-26.5Q169.09-26.5 171.14-25.13 173.19-23.75 173.86-21.25 174.54-18.75 173.79-15.25L173.79-15.25 170.79-1.2Q170.69-0.7 170.29-0.35 169.89 0 169.34 0L169.34 0 164.94 0Q164.44 0 164.16-0.35 163.89-0.7 163.99-1.2L163.99-1.2 166.89-14.95Q167.54-18 166.76-19.58 165.99-21.15 163.09-21.15L163.09-21.15Q160.24-21.15 158.26-19.5 156.29-17.85 155.64-14.95L155.64-14.95 152.74-1.2Q152.64-0.7 152.24-0.35 151.84 0 151.34 0L151.34 0ZM186.69 0.5L186.69 0.5Q184.09 0.5 182.29-0.38 180.49-1.25 179.46-2.85 178.44-4.45 178.14-6.63 177.84-8.8 178.24-11.4L178.24-11.4Q178.44-12.3 178.59-13.03 178.74-13.75 178.94-14.65L178.94-14.65Q179.59-17.15 180.66-19.3 181.74-21.45 183.31-23.08 184.89-24.7 187.01-25.6 189.14-26.5 191.89-26.5L191.89-26.5Q194.99-26.5 196.61-25.53 198.24-24.55 199.14-23.15L199.14-23.15 199.49-24.8Q199.59-25.3 199.99-25.65 200.39-26 200.89-26L200.89-26 204.84-26Q205.34-26 205.64-25.65 205.94-25.3 205.84-24.8L205.84-24.8 200.79-1.2Q200.69-0.7 200.29-0.35 199.89 0 199.39 0L199.39 0 195.44 0Q194.89 0 194.61-0.35 194.34-0.7 194.44-1.2L194.44-1.2 194.84-3.05Q193.34-1.5 191.54-0.5 189.74 0.5 186.69 0.5ZM188.94-4.85L188.94-4.85Q191.04-4.85 192.54-5.8 194.04-6.75 194.96-8.22 195.89-9.7 196.29-11.25L196.29-11.25Q196.54-12.15 196.74-13.18 196.94-14.2 197.09-15.1L197.09-15.1Q197.39-16.6 197.14-17.98 196.89-19.35 195.86-20.25 194.84-21.15 192.79-21.15L192.79-21.15Q190.84-21.15 189.46-20.23 188.09-19.3 187.19-17.8 186.29-16.3 185.74-14.5L185.74-14.5Q185.54-13.75 185.39-13 185.24-12.25 185.14-11.5L185.14-11.5Q184.89-9.7 185.01-8.2 185.14-6.7 186.06-5.78 186.99-4.85 188.94-4.85ZM222.78 0L219.23 0Q215.83 0 213.93-1.05 212.03-2.1 211.48-4.17 210.93-6.25 211.58-9.35L211.58-9.35 214.03-20.7 210.08-20.7Q209.58-20.7 209.31-21.05 209.03-21.4 209.13-21.95L209.13-21.95 209.73-24.8Q209.83-25.3 210.26-25.65 210.68-26 211.23-26L211.23-26 215.13-26 216.93-34.3Q217.03-34.8 217.43-35.15 217.83-35.5 218.33-35.5L218.33-35.5 222.38-35.5Q222.93-35.5 223.21-35.15 223.48-34.8 223.38-34.3L223.38-34.3 221.58-26 227.83-26Q228.33-26 228.61-25.65 228.88-25.3 228.78-24.8L228.78-24.8 228.18-21.95Q228.08-21.4 227.66-21.05 227.23-20.7 226.73-20.7L226.73-20.7 220.48-20.7 218.18-9.85Q217.88-8.5 217.86-7.53 217.83-6.55 218.38-6.03 218.93-5.5 220.33-5.5L220.33-5.5 223.93-5.5Q224.48-5.5 224.73-5.15 224.98-4.8 224.88-4.3L224.88-4.3 224.23-1.2Q224.13-0.7 223.73-0.35 223.33 0 222.78 0L222.78 0ZM240.03 0.5L240.03 0.5Q236.23 0.5 233.71-0.9 231.18-2.3 230.11-4.85 229.03-7.4 229.58-10.8L229.58-10.8Q229.73-11.7 230.01-13 230.28-14.3 230.53-15.2L230.53-15.2Q231.43-18.65 233.31-21.18 235.18-23.7 238.11-25.1 241.03-26.5 245.03-26.5L245.03-26.5Q248.83-26.5 251.36-25.1 253.88-23.7 254.98-21.18 256.08-18.65 255.53-15.2L255.53-15.2Q255.33-14.3 255.08-13 254.83-11.7 254.58-10.8L254.58-10.8Q253.68-7.4 251.86-4.85 250.03-2.3 247.11-0.9 244.18 0.5 240.03 0.5ZM240.53-4.45L240.53-4.45Q243.23-4.45 245.11-6.13 246.98-7.8 247.83-11.05L247.83-11.05Q248.03-11.8 248.28-13 248.53-14.2 248.68-14.95L248.68-14.95Q249.23-18.2 248.23-19.88 247.23-21.55 244.53-21.55L244.53-21.55Q241.88-21.55 239.98-19.88 238.08-18.2 237.28-14.95L237.28-14.95Q237.08-14.2 236.81-13 236.53-11.8 236.43-11.05L236.43-11.05Q235.88-7.8 236.86-6.13 237.83-4.45 240.53-4.45ZM263.48 0L259.13 0Q258.63 0 258.35-0.35 258.08-0.7 258.18-1.2L258.18-1.2 263.18-24.75Q263.28-25.3 263.7-25.65 264.13-26 264.63-26L264.63-26 268.68-26Q269.18-26 269.45-25.65 269.73-25.3 269.63-24.75L269.63-24.75 269.18-22.7Q270.38-24.3 272.23-25.15 274.08-26 276.73-26L276.73-26 279.18-26Q279.73-26 279.98-25.65 280.23-25.3 280.13-24.8L280.13-24.8 279.38-21.2Q279.28-20.7 278.85-20.35 278.43-20 277.93-20L277.93-20 274.03-20Q271.63-20 270-18.68 268.38-17.35 267.88-14.95L267.88-14.95 264.93-1.2Q264.83-0.7 264.43-0.35 264.03 0 263.48 0L263.48 0ZM303.32 0.5L303.32 0.5Q299.82 0.5 297.45-0.35 295.07-1.2 293.7-2.58 292.32-3.95 291.82-5.58 291.32-7.2 291.62-8.8L291.62-8.8Q291.72-9.25 292.07-9.53 292.42-9.8 292.87-9.8L292.87-9.8 297.37-9.8Q297.92-9.8 298.25-9.6 298.57-9.4 298.72-8.8L298.72-8.8Q298.82-7.45 299.65-6.65 300.47-5.85 301.8-5.53 303.12-5.2 304.57-5.2L304.57-5.2Q307.57-5.2 309.65-6.63 311.72-8.05 312.32-10.7L312.32-10.7Q312.87-13.35 311.47-14.53 310.07-15.7 307.12-15.7L307.12-15.7 301.97-15.7Q301.42-15.7 301.17-16.03 300.92-16.35 300.97-16.9L300.97-16.9 301.42-19Q301.57-19.5 301.85-19.88 302.12-20.25 302.42-20.5L302.42-20.5 313.22-29.25 298.92-29.25Q298.42-29.25 298.15-29.6 297.87-29.95 297.97-30.45L297.97-30.45 298.67-33.75Q298.77-34.3 299.2-34.65 299.62-35 300.17-35L300.17-35 321.62-35Q322.17-35 322.42-34.65 322.67-34.3 322.57-33.75L322.57-33.75 321.97-30.75Q321.87-30.3 321.6-29.95 321.32-29.6 321.02-29.35L321.02-29.35 310.47-20.45 311.07-20.4Q314.07-20.15 316.17-19.03 318.27-17.9 319.2-15.75 320.12-13.6 319.37-10.35L319.37-10.35Q318.67-6.95 316.35-4.53 314.02-2.1 310.67-0.8 307.32 0.5 303.32 0.5ZM335.52 0.5L335.52 0.5Q331.37 0.5 328.62-1.05 325.87-2.6 324.75-5.6 323.62-8.6 324.32-12.9L324.32-12.9Q324.57-14.35 324.87-15.93 325.17-17.5 325.55-19.13 325.92-20.75 326.32-22.2L326.32-22.2Q327.37-26.45 329.42-29.43 331.47-32.4 334.59-33.95 337.72-35.5 341.97-35.5L341.97-35.5Q346.12-35.5 348.87-33.95 351.62-32.4 352.8-29.43 353.97-26.45 353.27-22.2L353.27-22.2Q353.02-20.75 352.69-19.13 352.37-17.5 352.02-15.93 351.67-14.35 351.27-12.9L351.27-12.9Q350.17-8.6 348.17-5.6 346.17-2.6 343.07-1.05 339.97 0.5 335.52 0.5ZM335.97-5.25L335.97-5.25Q339.12-5.25 341.14-7.18 343.17-9.1 344.17-13.15L344.17-13.15Q344.57-14.6 344.89-16.07 345.22-17.55 345.52-19.03 345.82-20.5 346.07-21.9L346.07-21.9Q346.77-25.9 345.8-27.85 344.82-29.8 341.57-29.8L341.57-29.8Q338.37-29.8 336.39-27.85 334.42-25.9 333.42-21.9L333.42-21.9Q333.07-20.5 332.72-19.03 332.37-17.55 332.09-16.07 331.82-14.6 331.52-13.15L331.52-13.15Q330.82-9.1 331.8-7.18 332.77-5.25 335.97-5.25ZM368.32 0.5L368.32 0.5Q364.17 0.5 361.42-1.05 358.67-2.6 357.54-5.6 356.42-8.6 357.12-12.9L357.12-12.9Q357.37-14.35 357.67-15.93 357.97-17.5 358.34-19.13 358.72-20.75 359.12-22.2L359.12-22.2Q360.17-26.45 362.22-29.43 364.27-32.4 367.39-33.95 370.52-35.5 374.77-35.5L374.77-35.5Q378.92-35.5 381.67-33.95 384.42-32.4 385.59-29.43 386.77-26.45 386.07-22.2L386.07-22.2Q385.82-20.75 385.49-19.13 385.17-17.5 384.82-15.93 384.47-14.35 384.07-12.9L384.07-12.9Q382.97-8.6 380.97-5.6 378.97-2.6 375.87-1.05 372.77 0.5 368.32 0.5ZM368.77-5.25L368.77-5.25Q371.92-5.25 373.94-7.18 375.97-9.1 376.97-13.15L376.97-13.15Q377.37-14.6 377.69-16.07 378.02-17.55 378.32-19.03 378.62-20.5 378.87-21.9L378.87-21.9Q379.57-25.9 378.59-27.85 377.62-29.8 374.37-29.8L374.37-29.8Q371.17-29.8 369.19-27.85 367.22-25.9 366.22-21.9L366.22-21.9Q365.87-20.5 365.52-19.03 365.17-17.55 364.89-16.07 364.62-14.6 364.32-13.15L364.32-13.15Q363.62-9.1 364.59-7.18 365.57-5.25 368.77-5.25ZM412.31 0L388.42 0Q387.92 0 387.67-0.35 387.42-0.7 387.52-1.2L387.52-1.2 388.02-3.75Q388.12-4.2 388.47-4.83 388.81-5.45 389.77-6.1L389.77-6.1 399.37-13.95Q403.17-16.55 405.59-18.38 408.02-20.2 409.29-21.73 410.56-23.25 410.87-24.75L410.87-24.75Q411.31-27 410.37-28.4 409.42-29.8 406.77-29.8L406.77-29.8Q405.06-29.8 403.72-29.08 402.37-28.35 401.44-27.15 400.52-25.95 399.97-24.5L399.97-24.5Q399.67-23.85 399.17-23.6 398.67-23.35 398.22-23.35L398.22-23.35 393.81-23.35Q393.31-23.35 393.09-23.65 392.87-23.95 392.97-24.35L392.97-24.35Q393.47-26.5 394.74-28.53 396.02-30.55 397.99-32.13 399.97-33.7 402.49-34.65 405.02-35.6 408.02-35.6L408.02-35.6Q412.12-35.6 414.56-34.2 417.02-32.8 417.89-30.4 418.77-28 418.12-25L418.12-25Q417.62-22.65 416.29-20.68 414.97-18.7 412.87-16.88 410.77-15.05 407.97-13.15L407.97-13.15 399.37-5.95 413.56-5.95Q414.12-5.95 414.37-5.63 414.62-5.3 414.52-4.75L414.52-4.75 413.81-1.2Q413.72-0.7 413.29-0.35 412.87 0 412.31 0L412.31 0Z" opacity="1" transform="matrix(1,0,0,1,0,0)" fill="#0080ff" class="wordmark-text-0" data-fill-palette-color="primary" id="text-0"></path></svg></g></svg></g><g transform="matrix(1,0,0,1,0,43.2020628038972)"><svg viewBox="0 0 395.52 21.599703264854643" height="21.599703264854643" width="395.52"><g transform="matrix(1,0,0,1,0,0)"><svg width="395.52" viewBox="2.43 -36.83 840.94 45.93" height="21.599703264854643" data-palette-color="#0023ff"><path d="M11.53-35.83L7.58-3.95 21.75-3.95 21.28 0 2.43 0 6.85-35.83 11.53-35.83ZM67.37-19.9L67.37-19.9Q67.37-18.25 66.69-16.86 66.02-15.48 64.22-14.36 62.42-13.25 59.27-12.43 56.12-11.6 51.17-11.1L51.17-11.1Q51.14-10.83 51.14-10.56 51.14-10.3 51.14-10.03L51.14-10.03Q51.14-6.68 52.61-4.91 54.07-3.15 57.02-3.15L57.02-3.15Q58.22-3.15 59.16-3.4 60.09-3.65 60.83-4.01 61.57-4.38 62.13-4.81 62.69-5.25 63.17-5.61 63.64-5.98 64.04-6.23 64.44-6.48 64.84-6.48L64.84-6.48Q65.29-6.48 65.67-6.05L65.67-6.05 66.77-4.67Q65.49-3.35 64.28-2.41 63.07-1.48 61.79-0.85 60.52-0.23 59.13 0.06 57.74 0.35 56.14 0.35L56.14 0.35Q53.97 0.35 52.24-0.38 50.52-1.1 49.32-2.44 48.12-3.78 47.47-5.68 46.82-7.58 46.82-9.93L46.82-9.93Q46.82-11.88 47.23-13.81 47.64-15.75 48.43-17.5 49.22-19.25 50.36-20.75 51.49-22.25 52.96-23.34 54.42-24.43 56.18-25.05 57.94-25.68 59.97-25.68L59.97-25.68Q61.89-25.68 63.29-25.13 64.69-24.58 65.59-23.73 66.49-22.88 66.93-21.85 67.37-20.83 67.37-19.9ZM59.72-22.48L59.72-22.48Q58.14-22.48 56.82-21.83 55.49-21.18 54.47-20.04 53.44-18.9 52.72-17.36 51.99-15.83 51.59-14.05L51.59-14.05Q55.44-14.53 57.77-15.14 60.09-15.75 61.34-16.46 62.59-17.18 62.99-18 63.39-18.82 63.39-19.73L63.39-19.73Q63.39-20.18 63.19-20.66 62.99-21.15 62.56-21.55 62.12-21.95 61.42-22.21 60.72-22.48 59.72-22.48ZM113.49-24.5L110.46 0 108.16 0Q107.29 0 106.97-0.45 106.66-0.9 106.66-1.55L106.66-1.55 107.11-6.68Q106.21-5.08 105.17-3.78 104.14-2.48 102.97-1.56 101.81-0.65 100.54-0.15 99.26 0.35 97.89 0.35L97.89 0.35Q96.39 0.35 95.16-0.24 93.94-0.83 93.07-1.96 92.21-3.1 91.74-4.76 91.26-6.43 91.26-8.58L91.26-8.58Q91.26-10.83 91.82-12.96 92.39-15.1 93.42-17 94.46-18.9 95.91-20.49 97.36-22.08 99.15-23.24 100.94-24.4 102.99-25.04 105.04-25.68 107.29-25.68L107.29-25.68Q108.91-25.68 110.45-25.41 111.99-25.15 113.49-24.5L113.49-24.5ZM99.56-3.35L99.56-3.35Q100.79-3.35 101.96-4.11 103.14-4.88 104.19-6.23 105.24-7.58 106.15-9.44 107.06-11.3 107.76-13.53L107.76-13.53 108.84-22.23Q108.29-22.35 107.75-22.39 107.21-22.43 106.69-22.43L106.69-22.43Q105.19-22.43 103.79-21.94 102.39-21.45 101.16-20.58 99.94-19.7 98.94-18.49 97.94-17.28 97.22-15.83 96.51-14.38 96.11-12.74 95.71-11.1 95.71-9.38L95.71-9.38Q95.71-3.35 99.56-3.35ZM143.11 0L138.76 0 141.81-25.35 144.03-25.35Q144.73-25.35 145.13-25.03 145.53-24.7 145.53-24.03L145.53-24.03Q145.53-23.93 145.52-23.74 145.51-23.55 145.49-23.35 145.48-23.15 145.47-23 145.46-22.85 145.46-22.83L145.46-22.83 145.11-18.23Q146.73-21.73 148.74-23.63 150.76-25.53 152.98-25.53L152.98-25.53Q154.03-25.53 155.08-25.08L155.08-25.08 154.28-20.8Q153.11-21.28 152.01-21.28L152.01-21.28Q149.58-21.28 147.68-18.91 145.78-16.55 144.51-11.75L144.51-11.75 143.11 0ZM182.42 0L177.97 0 181-25.35 183.22-25.35Q184.72-25.35 184.72-23.85L184.72-23.85 184.35-18.95Q186.37-22.3 188.91-24 191.45-25.7 194.17-25.7L194.17-25.7Q197-25.7 198.56-23.8 200.12-21.9 200.12-18.25L200.12-18.25Q200.12-17.75 200.1-17.23 200.07-16.7 200-16.13L200-16.13 198.1 0 193.65 0 195.55-16.13Q195.6-16.63 195.64-17.09 195.67-17.55 195.67-17.98L195.67-17.98Q195.67-20.03 194.91-21.01 194.15-22 192.52-22L192.52-22Q191.32-22 190.09-21.35 188.85-20.7 187.7-19.51 186.55-18.32 185.56-16.64 184.57-14.95 183.87-12.88L183.87-12.88 182.42 0ZM229.59-25.33L233.97-25.33 230.92 0 226.54 0 229.59-25.33ZM235.64-33.27L235.64-33.27Q235.64-32.63 235.38-32.06 235.12-31.5 234.68-31.06 234.24-30.63 233.69-30.38 233.14-30.13 232.54-30.13L232.54-30.13Q231.97-30.13 231.42-30.38 230.87-30.63 230.45-31.06 230.04-31.5 229.79-32.06 229.54-32.63 229.54-33.27L229.54-33.27Q229.54-33.93 229.79-34.5 230.04-35.08 230.47-35.51 230.89-35.95 231.44-36.21 231.99-36.48 232.57-36.48L232.57-36.48Q233.17-36.48 233.72-36.23 234.27-35.98 234.7-35.54 235.14-35.1 235.39-34.51 235.64-33.93 235.64-33.27ZM264.24 0L259.79 0 262.81-25.35 265.04-25.35Q266.54-25.35 266.54-23.85L266.54-23.85 266.16-18.95Q268.19-22.3 270.72-24 273.26-25.7 275.99-25.7L275.99-25.7Q278.81-25.7 280.37-23.8 281.94-21.9 281.94-18.25L281.94-18.25Q281.94-17.75 281.91-17.23 281.89-16.7 281.81-16.13L281.81-16.13 279.91 0 275.46 0 277.36-16.13Q277.41-16.63 277.45-17.09 277.49-17.55 277.49-17.98L277.49-17.98Q277.49-20.03 276.72-21.01 275.96-22 274.34-22L274.34-22Q273.14-22 271.9-21.35 270.66-20.7 269.51-19.51 268.36-18.32 267.37-16.64 266.39-14.95 265.69-12.88L265.69-12.88 264.24 0ZM326.38-18.3L326.38-18.3Q326.35-17.05 326.07-16.05 325.78-15.05 325.35-14.2 324.93-13.35 324.43-12.6 323.93-11.85 323.5-11.1 323.08-10.35 322.79-9.56 322.5-8.78 322.5-7.85L322.5-7.85Q322.5-6.8 323.02-5.95 323.53-5.1 324.14-4.2 324.75-3.3 325.27-2.24 325.78-1.18 325.78 0.28L325.78 0.28Q325.78 2.05 324.95 3.64 324.13 5.23 322.6 6.45 321.08 7.68 318.89 8.39 316.7 9.1 313.98 9.1L313.98 9.1Q311.8 9.1 310.02 8.65 308.23 8.2 306.97 7.38 305.7 6.55 305.02 5.39 304.33 4.23 304.33 2.83L304.33 2.83Q304.33 0.85 305.35-0.58 306.38-2 308.05-2.93 309.73-3.85 311.87-4.28 314-4.7 316.23-4.7L316.23-4.7Q317.13-4.7 318.02-4.63 318.9-4.55 319.78-4.42L319.78-4.42Q319.55-4.9 319.42-5.41 319.28-5.93 319.28-6.53L319.28-6.53Q319.28-7.3 319.52-8.13 319.75-8.95 320.3-9.98L320.3-9.98Q319.35-9.33 318.18-8.97 317-8.63 315.5-8.63L315.5-8.63Q314.05-8.63 312.79-9.1 311.53-9.58 310.58-10.5 309.63-11.43 309.08-12.81 308.53-14.2 308.53-16.05L308.53-16.05Q308.53-17.85 309.19-19.59 309.85-21.33 311.13-22.69 312.4-24.05 314.28-24.88 316.15-25.7 318.6-25.7L318.6-25.7Q321.35-25.7 323.38-24.4L323.38-24.4 330.25-24.4 330.05-22.93Q330-22.5 329.77-22.15 329.53-21.8 329.05-21.73L329.05-21.73 325.9-21.18Q326.13-20.53 326.25-19.81 326.38-19.1 326.38-18.3ZM316.73-11.43L316.73-11.43Q318.08-11.43 319.1-12.01 320.13-12.6 320.84-13.56 321.55-14.53 321.93-15.73 322.3-16.93 322.3-18.15L322.3-18.15Q322.3-20.35 321.19-21.48 320.08-22.6 318.13-22.6L318.13-22.6Q316.78-22.6 315.75-22.05 314.73-21.5 314.03-20.58 313.33-19.65 312.97-18.48 312.6-17.3 312.6-16.03L312.6-16.03Q312.6-13.78 313.69-12.6 314.78-11.43 316.73-11.43ZM321.73 0.63L321.73 0.63Q321.73-0.03 321.6-0.59 321.48-1.15 321.28-1.65L321.28-1.65Q319.93-1.88 318.74-1.98 317.55-2.08 316.5-2.08L316.5-2.08Q314.45-2.08 312.95-1.71 311.45-1.35 310.48-0.75 309.5-0.15 309.03 0.64 308.55 1.43 308.55 2.27L308.55 2.27Q308.55 4.08 310.07 5.03 311.58 5.98 314.35 5.98L314.35 5.98Q316 5.98 317.37 5.54 318.73 5.1 319.69 4.38 320.65 3.65 321.19 2.68 321.73 1.7 321.73 0.63ZM388.32 0L383.97 0 387.02-25.35 389.24-25.35Q390.74-25.35 390.74-23.85L390.74-23.85 390.39-19.33Q392.27-22.48 394.49-24.09 396.72-25.7 399.19-25.7L399.19-25.7Q401.77-25.7 402.99-23.94 404.22-22.18 404.22-18.9L404.22-18.9Q406.12-22.38 408.48-24.04 410.84-25.7 413.44-25.7L413.44-25.7Q416.24-25.7 417.63-23.88 419.02-22.05 419.02-18.63L419.02-18.63Q419.02-18.05 418.97-17.43 418.92-16.8 418.84-16.13L418.84-16.13 416.94 0 412.57 0 414.47-16.13Q414.62-17.35 414.62-18.35L414.62-18.35Q414.62-20.23 413.99-21.11 413.37-22 411.89-22L411.89-22Q410.82-22 409.74-21.46 408.67-20.93 407.67-19.89 406.67-18.85 405.8-17.31 404.94-15.78 404.27-13.78L404.27-13.78 402.64 0 398.24 0 400.17-16.13Q400.24-16.8 400.29-17.4 400.34-18 400.34-18.53L400.34-18.53Q400.34-20.3 399.75-21.15 399.17-22 397.69-22L397.69-22Q396.49-22 395.38-21.4 394.27-20.8 393.28-19.66 392.29-18.53 391.44-16.89 390.59-15.25 389.89-13.2L389.89-13.2 388.32 0ZM466.46-24.5L463.43 0 461.13 0Q460.26 0 459.95-0.45 459.63-0.9 459.63-1.55L459.63-1.55 460.08-6.68Q459.18-5.08 458.15-3.78 457.11-2.48 455.95-1.56 454.78-0.65 453.51-0.15 452.23 0.35 450.86 0.35L450.86 0.35Q449.36 0.35 448.13-0.24 446.91-0.83 446.05-1.96 445.18-3.1 444.71-4.76 444.23-6.43 444.23-8.58L444.23-8.58Q444.23-10.83 444.8-12.96 445.36-15.1 446.4-17 447.43-18.9 448.88-20.49 450.33-22.08 452.12-23.24 453.91-24.4 455.96-25.04 458.01-25.68 460.26-25.68L460.26-25.68Q461.88-25.68 463.42-25.41 464.96-25.15 466.46-24.5L466.46-24.5ZM452.53-3.35L452.53-3.35Q453.76-3.35 454.93-4.11 456.11-4.88 457.16-6.23 458.21-7.58 459.12-9.44 460.03-11.3 460.73-13.53L460.73-13.53 461.81-22.23Q461.26-22.35 460.72-22.39 460.18-22.43 459.66-22.43L459.66-22.43Q458.16-22.43 456.76-21.94 455.36-21.45 454.13-20.58 452.91-19.7 451.91-18.49 450.91-17.28 450.2-15.83 449.48-14.38 449.08-12.74 448.68-11.1 448.68-9.38L448.68-9.38Q448.68-3.35 452.53-3.35ZM511.15 0L508.85 0Q507.98 0 507.66-0.45 507.35-0.9 507.35-1.55L507.35-1.55 507.83-6.83Q506.88-5.2 505.75-3.88 504.63-2.55 503.39-1.61 502.15-0.68 500.81-0.16 499.48 0.35 498.1 0.35L498.1 0.35Q494.85 0.35 493.06-2.01 491.28-4.38 491.28-8.88L491.28-8.88Q491.28-10.93 491.7-12.98 492.13-15.03 492.91-16.9 493.7-18.78 494.81-20.39 495.93-22 497.29-23.18 498.65-24.35 500.25-25.03 501.85-25.7 503.6-25.7L503.6-25.7Q505.45-25.7 506.99-24.98 508.53-24.25 509.6-22.9L509.6-22.9 511.33-36.83 515.7-36.83 511.15 0ZM499.78-3.23L499.78-3.23Q500.98-3.23 502.19-3.96 503.4-4.7 504.54-6.01 505.68-7.33 506.66-9.14 507.65-10.95 508.38-13.1L508.38-13.1 509.2-19.8Q508.25-21.13 506.93-21.68 505.6-22.23 504.25-22.23L504.25-22.23Q502.28-22.23 500.69-21.05 499.1-19.88 497.99-18.01 496.88-16.15 496.28-13.85 495.68-11.55 495.68-9.33L495.68-9.33Q495.68-6.35 496.75-4.79 497.83-3.23 499.78-3.23ZM559.95-19.9L559.95-19.9Q559.95-18.25 559.27-16.86 558.6-15.48 556.8-14.36 555-13.25 551.85-12.43 548.7-11.6 543.75-11.1L543.75-11.1Q543.72-10.83 543.72-10.56 543.72-10.3 543.72-10.03L543.72-10.03Q543.72-6.68 545.18-4.91 546.65-3.15 549.6-3.15L549.6-3.15Q550.8-3.15 551.73-3.4 552.67-3.65 553.41-4.01 554.15-4.38 554.71-4.81 555.27-5.25 555.75-5.61 556.22-5.98 556.62-6.23 557.02-6.48 557.42-6.48L557.42-6.48Q557.87-6.48 558.25-6.05L558.25-6.05 559.35-4.67Q558.07-3.35 556.86-2.41 555.65-1.48 554.37-0.85 553.1-0.23 551.71 0.06 550.32 0.35 548.72 0.35L548.72 0.35Q546.55 0.35 544.82-0.38 543.1-1.1 541.9-2.44 540.7-3.78 540.05-5.68 539.4-7.58 539.4-9.93L539.4-9.93Q539.4-11.88 539.81-13.81 540.22-15.75 541.01-17.5 541.8-19.25 542.93-20.75 544.07-22.25 545.53-23.34 547-24.43 548.76-25.05 550.52-25.68 552.55-25.68L552.55-25.68Q554.47-25.68 555.87-25.13 557.27-24.58 558.17-23.73 559.07-22.88 559.51-21.85 559.95-20.83 559.95-19.9ZM552.3-22.48L552.3-22.48Q550.72-22.48 549.4-21.83 548.07-21.18 547.05-20.04 546.02-18.9 545.3-17.36 544.57-15.83 544.17-14.05L544.17-14.05Q548.02-14.53 550.35-15.14 552.67-15.75 553.92-16.46 555.17-17.18 555.57-18 555.97-18.82 555.97-19.73L555.97-19.73Q555.97-20.18 555.77-20.66 555.57-21.15 555.13-21.55 554.7-21.95 554-22.21 553.3-22.48 552.3-22.48ZM635.98-19.9L635.98-19.9Q635.98-18.25 635.31-16.86 634.63-15.48 632.83-14.36 631.03-13.25 627.88-12.43 624.73-11.6 619.78-11.1L619.78-11.1Q619.76-10.83 619.76-10.56 619.76-10.3 619.76-10.03L619.76-10.03Q619.76-6.68 621.22-4.91 622.68-3.15 625.63-3.15L625.63-3.15Q626.83-3.15 627.77-3.4 628.71-3.65 629.44-4.01 630.18-4.38 630.74-4.81 631.31-5.25 631.78-5.61 632.26-5.98 632.66-6.23 633.06-6.48 633.46-6.48L633.46-6.48Q633.91-6.48 634.28-6.05L634.28-6.05 635.38-4.67Q634.11-3.35 632.89-2.41 631.68-1.48 630.41-0.85 629.13-0.23 627.74 0.06 626.36 0.35 624.76 0.35L624.76 0.35Q622.58 0.35 620.86-0.38 619.13-1.1 617.93-2.44 616.73-3.78 616.08-5.68 615.43-7.58 615.43-9.93L615.43-9.93Q615.43-11.88 615.84-13.81 616.26-15.75 617.04-17.5 617.83-19.25 618.97-20.75 620.11-22.25 621.57-23.34 623.03-24.43 624.79-25.05 626.56-25.68 628.58-25.68L628.58-25.68Q630.51-25.68 631.91-25.13 633.31-24.58 634.21-23.73 635.11-22.88 635.54-21.85 635.98-20.83 635.98-19.9ZM628.33-22.48L628.33-22.48Q626.76-22.48 625.43-21.83 624.11-21.18 623.08-20.04 622.06-18.9 621.33-17.36 620.61-15.83 620.21-14.05L620.21-14.05Q624.06-14.53 626.38-15.14 628.71-15.75 629.96-16.46 631.21-17.18 631.61-18 632.01-18.82 632.01-19.73L632.01-19.73Q632.01-20.18 631.81-20.66 631.61-21.15 631.17-21.55 630.73-21.95 630.03-22.21 629.33-22.48 628.33-22.48ZM682.1-24.5L679.08 0 676.78 0Q675.9 0 675.59-0.45 675.28-0.9 675.28-1.55L675.28-1.55 675.73-6.68Q674.83-5.08 673.79-3.78 672.75-2.48 671.59-1.56 670.43-0.65 669.15-0.15 667.88 0.35 666.5 0.35L666.5 0.35Q665 0.35 663.78-0.24 662.55-0.83 661.69-1.96 660.83-3.1 660.35-4.76 659.88-6.43 659.88-8.58L659.88-8.58Q659.88-10.83 660.44-12.96 661-15.1 662.04-17 663.08-18.9 664.53-20.49 665.98-22.08 667.76-23.24 669.55-24.4 671.6-25.04 673.65-25.68 675.9-25.68L675.9-25.68Q677.53-25.68 679.06-25.41 680.6-25.15 682.1-24.5L682.1-24.5ZM668.18-3.35L668.18-3.35Q669.4-3.35 670.58-4.11 671.75-4.88 672.8-6.23 673.85-7.58 674.76-9.44 675.68-11.3 676.38-13.53L676.38-13.53 677.45-22.23Q676.9-22.35 676.36-22.39 675.83-22.43 675.3-22.43L675.3-22.43Q673.8-22.43 672.4-21.94 671-21.45 669.78-20.58 668.55-19.7 667.55-18.49 666.55-17.28 665.84-15.83 665.13-14.38 664.73-12.74 664.33-11.1 664.33-9.38L664.33-9.38Q664.33-3.35 668.18-3.35ZM724.79-22.88L723.67-21.28Q723.47-20.98 723.27-20.84 723.07-20.7 722.77-20.7L722.77-20.7Q722.42-20.7 722.01-20.98 721.59-21.25 721.01-21.59 720.42-21.93 719.57-22.21 718.72-22.5 717.52-22.5L717.52-22.5Q716.39-22.5 715.47-22.19 714.54-21.88 713.87-21.33 713.19-20.78 712.83-20.04 712.47-19.3 712.47-18.48L712.47-18.48Q712.47-17.3 713.24-16.6 714.02-15.9 715.19-15.39 716.37-14.88 717.73-14.4 719.09-13.93 720.27-13.2 721.44-12.48 722.22-11.35 722.99-10.23 722.99-8.43L722.99-8.43Q722.99-6.68 722.31-5.08 721.62-3.48 720.33-2.26 719.04-1.05 717.23-0.33 715.42 0.4 713.17 0.4L713.17 0.4Q710.74 0.4 708.88-0.46 707.02-1.33 705.84-2.68L705.84-2.68 706.94-4.38Q707.14-4.7 707.42-4.88 707.69-5.05 708.12-5.05L708.12-5.05Q708.52-5.05 708.92-4.7 709.32-4.35 709.92-3.91 710.52-3.48 711.43-3.13 712.34-2.78 713.74-2.78L713.74-2.78Q714.97-2.78 715.96-3.15 716.94-3.53 717.63-4.15 718.32-4.78 718.68-5.61 719.04-6.45 719.04-7.4L719.04-7.4Q719.04-8.68 718.27-9.43 717.49-10.18 716.32-10.68 715.14-11.18 713.79-11.61 712.44-12.05 711.27-12.74 710.09-13.43 709.32-14.53 708.54-15.63 708.54-17.45L708.54-17.45Q708.54-19.05 709.18-20.54 709.82-22.03 711.02-23.18 712.22-24.33 713.93-25.01 715.64-25.7 717.79-25.7L717.79-25.7Q720.07-25.7 721.81-24.94 723.54-24.18 724.79-22.88L724.79-22.88ZM752.14-25.33L756.51-25.33 753.46 0 749.09 0 752.14-25.33ZM758.19-33.27L758.19-33.27Q758.19-32.63 757.93-32.06 757.66-31.5 757.23-31.06 756.79-30.63 756.24-30.38 755.69-30.13 755.09-30.13L755.09-30.13Q754.51-30.13 753.96-30.38 753.41-30.63 753-31.06 752.59-31.5 752.34-32.06 752.09-32.63 752.09-33.27L752.09-33.27Q752.09-33.93 752.34-34.5 752.59-35.08 753.01-35.51 753.44-35.95 753.99-36.21 754.54-36.48 755.11-36.48L755.11-36.48Q755.71-36.48 756.26-36.23 756.81-35.98 757.25-35.54 757.69-35.1 757.94-34.51 758.19-33.93 758.19-33.27ZM802.58-19.9L802.58-19.9Q802.58-18.25 801.91-16.86 801.23-15.48 799.43-14.36 797.63-13.25 794.48-12.43 791.33-11.6 786.38-11.1L786.38-11.1Q786.36-10.83 786.36-10.56 786.36-10.3 786.36-10.03L786.36-10.03Q786.36-6.68 787.82-4.91 789.28-3.15 792.23-3.15L792.23-3.15Q793.43-3.15 794.37-3.4 795.31-3.65 796.04-4.01 796.78-4.38 797.34-4.81 797.91-5.25 798.38-5.61 798.86-5.98 799.26-6.23 799.66-6.48 800.06-6.48L800.06-6.48Q800.51-6.48 800.88-6.05L800.88-6.05 801.98-4.67Q800.71-3.35 799.49-2.41 798.28-1.48 797.01-0.85 795.73-0.23 794.34 0.06 792.96 0.35 791.36 0.35L791.36 0.35Q789.18 0.35 787.46-0.38 785.73-1.1 784.53-2.44 783.33-3.78 782.68-5.68 782.03-7.58 782.03-9.93L782.03-9.93Q782.03-11.88 782.44-13.81 782.86-15.75 783.64-17.5 784.43-19.25 785.57-20.75 786.71-22.25 788.17-23.34 789.63-24.43 791.39-25.05 793.16-25.68 795.18-25.68L795.18-25.68Q797.11-25.68 798.51-25.13 799.91-24.58 800.81-23.73 801.71-22.88 802.14-21.85 802.58-20.83 802.58-19.9ZM794.93-22.48L794.93-22.48Q793.36-22.48 792.03-21.83 790.71-21.18 789.68-20.04 788.66-18.9 787.93-17.36 787.21-15.83 786.81-14.05L786.81-14.05Q790.66-14.53 792.98-15.14 795.31-15.75 796.56-16.46 797.81-17.18 798.21-18 798.61-18.82 798.61-19.73L798.61-19.73Q798.61-20.18 798.41-20.66 798.21-21.15 797.77-21.55 797.33-21.95 796.63-22.21 795.93-22.48 794.93-22.48ZM831.4 0L827.05 0 830.1-25.35 832.32-25.35Q833.02-25.35 833.42-25.03 833.82-24.7 833.82-24.03L833.82-24.03Q833.82-23.93 833.81-23.74 833.8-23.55 833.79-23.35 833.77-23.15 833.76-23 833.75-22.85 833.75-22.83L833.75-22.83 833.4-18.23Q835.02-21.73 837.04-23.63 839.05-25.53 841.27-25.53L841.27-25.53Q842.32-25.53 843.37-25.08L843.37-25.08 842.57-20.8Q841.4-21.28 840.3-21.28L840.3-21.28Q837.87-21.28 835.97-18.91 834.07-16.55 832.8-11.75L832.8-11.75 831.4 0Z" opacity="1" transform="matrix(1,0,0,1,0,0)" fill="#0023ff" class="slogan-text-1" data-fill-palette-color="secondary" id="text-1"></path></svg></g></svg></g></svg></g></svg></g><g><svg viewBox="0 0 77.1520406018397 77.1520406018397" height="77.1520406018397" width="77.1520406018397"><g><svg></svg></g><g id="icon-0"><svg viewBox="0 0 77.1520406018397 77.1520406018397" height="77.1520406018397" width="77.1520406018397"><g><path d="M0 38.576c0-21.305 17.271-38.576 38.576-38.576 21.305 0 38.576 17.271 38.576 38.576 0 21.305-17.271 38.576-38.576 38.576-21.305 0-38.576-17.271-38.576-38.576zM38.576 74c19.564 0 35.424-15.86 35.424-35.424 0-19.564-15.86-35.424-35.424-35.424-19.564 0-35.424 15.86-35.424 35.424 0 19.564 15.86 35.424 35.424 35.424z" data-fill-palette-color="accent" fill="#344fff" stroke="transparent"></path><ellipse rx="38.19026009791065" ry="38.19026009791065" cx="38.57602030091985" cy="38.57602030091985" fill="#344fff" stroke="transparent" stroke-width="0" fill-opacity="1" data-fill-palette-color="accent"></ellipse></g><g transform="matrix(1,0,0,1,17.679479843307035,17.848372100098953)"><svg viewBox="0 0 41.79308091522563 41.455296401641796" height="41.455296401641796" width="41.79308091522563"><g><svg xmlns="http://www.w3.org/2000/svg" data-name="Layer 1" viewBox="2.6199447741964934 2.9200000000000053 94.93731251264025 94.17" x="0" y="0" height="41.455296401641796" width="41.79308091522563" class="icon-cg-0" data-fill-palette-color="quaternary" id="cg-0"><path d="M10.72 12.06a9.14 9.14 0 1 1 9.14 9.14A9.14 9.14 0 0 1 10.72 12.06ZM20.52 78h-8a9.86 9.86 0 0 0-9.86 9.86v4.7a4.53 4.53 0 0 0 4.53 4.53H25.85a4.53 4.53 0 0 0 4.53-4.53v-4.7A9.86 9.86 0 0 0 20.52 78Zm4.33-11.11a8.35 8.35 0 1 0-8.35 8.35A8.35 8.35 0 0 0 24.85 66.89ZM87.53 78h-8a9.86 9.86 0 0 0-9.86 9.86v4.7a4.53 4.53 0 0 0 4.53 4.53H92.86a4.53 4.53 0 0 0 4.53-4.53v-4.7A9.86 9.86 0 0 0 87.53 78Zm4.33-11.11a8.35 8.35 0 1 0-8.35 8.35A8.35 8.35 0 0 0 91.86 66.89ZM54 78H46a9.86 9.86 0 0 0-9.86 9.86v4.7a4.53 4.53 0 0 0 4.53 4.53H59.35a4.53 4.53 0 0 0 4.53-4.53v-4.7A9.86 9.86 0 0 0 54 78Zm4.33-11.11A8.35 8.35 0 1 0 50 75.24 8.35 8.35 0 0 0 58.35 66.89Zm-7-33.23a4 4 0 0 0 0.6-5.54 3.91 3.91 0 0 0-5.61-0.48L36 36.68c-3.84-3.54-9.82-9.19-11.11-10.43l-0.19-0.19 0 0 0 0A8.13 8.13 0 0 0 19 23.81H10.78A8.16 8.16 0 0 0 2.62 32V48.35a4.53 4.53 0 0 0 4.53 4.53H22.66a4.53 4.53 0 0 0 4.53-4.53V39.18l6.06 5.64a3.92 3.92 0 0 0 5.23 0.07ZM94.59 3.31H39.4a2.8 2.8 0 1 0 0 5.59H94.59a2.8 2.8 0 0 0 0-5.59Zm0 11.13H39.4a2.8 2.8 0 1 0 0 5.59H94.59a2.8 2.8 0 0 0 0-5.59Zm0 11.13H61.69a2.8 2.8 0 1 0 0 5.59h32.9a2.8 2.8 0 0 0 0-5.59Zm0 11.13H58.35a2.8 2.8 0 1 0 0 5.59H94.59a2.8 2.8 0 0 0 0-5.59Zm0 11.13H45.68a2.8 2.8 0 1 0 0 5.59H94.59a2.8 2.8 0 1 0 0-5.59Z" fill="#ffffff" data-fill-palette-color="quaternary"></path></svg></g></svg></g></svg></g></svg></g></svg></g><defs></defs></svg><rect width="395.52" height="62.380996855479175" fill="none" stroke="none" visibility="hidden"></rect></g></svg></g></svg>