<svg xmlns="http://www.w3.org/2000/svg" version="1.1" xmlns:xlink="http://www.w3.org/1999/xlink" xmlns:svgjs="http://svgjs.dev/svgjs" width="1500" height="1500" viewBox="0 0 1500 1500"><rect width="1500" height="1500" fill="#000000"></rect><g transform="matrix(0.6666666666666666,0,0,0.6666666666666666,249.39393939393932,479.80059853081934)"><svg viewBox="0 0 396 214" data-background-color="#ffffff" preserveAspectRatio="xMidYMid meet" height="810" width="1500" xmlns="http://www.w3.org/2000/svg" xmlns:xlink="http://www.w3.org/1999/xlink"><g id="tight-bounds" transform="matrix(1,0,0,1,0.24000000000003752,0.07902206371232978)"><svg viewBox="0 0 395.5199999999999 213.84195587257534" height="213.84195587257534" width="395.5199999999999"><g><svg viewBox="0 0 395.5199999999999 213.84195587257534" height="213.84195587257534" width="395.5199999999999"><g transform="matrix(1,0,0,1,0,158.06564387596663)"><svg viewBox="0 0 395.5199999999999 55.77631199660872" height="55.77631199660872" width="395.5199999999999"><g id="textblocktransform"><svg viewBox="0 0 395.5199999999999 55.77631199660872" height="55.77631199660872" width="395.5199999999999" id="textblock"><g><svg viewBox="0 0 395.5199999999999 55.77631199660872" height="55.77631199660872" width="395.5199999999999"><g transform="matrix(1,0,0,1,0,0)"><svg width="395.5199999999999" viewBox="2 -37.5 353.81 49.9" height="55.77631199660872" data-palette-color="#085f63"><path d="M19.4-14.4L28.4-14.45Q28.4-14.4 28.45-13.7L28.45-13.7 26.45-13.45 26.45-1.05Q25.6-0.75 21.93-0.28 18.25 0.2 15.95 0.2 13.65 0.2 11.95-0.13 10.25-0.45 8.35-1.5 6.45-2.55 5.13-4.28 3.8-6 2.9-9 2-12 2-16L2-16Q2-24.85 6.05-29.8L6.05-29.8Q10.3-35 17.65-35L17.65-35Q19.9-35 22.53-34.58 25.15-34.15 26.25-33.75L26.25-33.75 26.85-26.55 25.9-26.2 25.25-31.55Q21.2-34.3 17.65-34.3L17.65-34.3Q12-34.3 8.7-29.6 5.4-24.9 5.4-16L5.4-16Q5.4-5.2 10.35-2.05L10.35-2.05Q11.85-1.1 13.13-0.83 14.4-0.55 16.7-0.55 19-0.55 23.45-1.2L23.45-1.2 23.65-12.7Q23.65-13.3 23.05-13.4L23.05-13.4 19.45-13.65Q19.4-13.95 19.4-14.4L19.4-14.4ZM38.25-35.45L38.25-35.45 38.25-21.9Q44.8-26.4 50.1-24.7L50.1-24.7Q51.3-24.35 52.17-23.68 53.05-23 53.7-21.65 54.35-20.3 54.35-18.4L54.35-18.4 54.35-1 58.1-0.75Q58.1-0.7 58.05 0L58.05 0 48.05 0.05Q48.05-0.4 48.1-0.65L48.1-0.65 50.7-1Q51-1 51.1-1.45L51.1-1.45 51.1-17.1Q51.1-19.05 50.57-20.48 50.05-21.9 49.35-22.55 48.65-23.2 47.7-23.55L47.7-23.55Q46.4-24.05 45.4-23.95L45.4-23.95Q42.15-23.85 38.25-21.3L38.25-21.3 38.25-1 42-0.75Q42-0.7 41.95 0L41.95 0 31.95 0.05Q31.95-0.4 32-0.65L32-0.65 34.6-1Q35-1.05 35-1.7L35-1.7 35-35.7Q35-36.25 34.7-36.25L34.7-36.25 31.7-36.35 31.75-37.05Q34.45-37.5 35.85-37.5 37.25-37.5 37.75-36.85 38.25-36.2 38.25-35.45ZM71.22 0.2Q66 0.2 62.77-2.8 59.55-5.8 59.55-11.98 59.55-18.15 62.97-21.68 66.4-25.2 71.6-25.2 76.8-25.2 80.05-22.2 83.3-19.2 83.3-13.03 83.3-6.85 79.87-3.33 76.45 0.2 71.22 0.2ZM71.55-24.3Q67.8-24.3 65.3-21.05 62.8-17.8 62.8-12.23 62.8-6.65 65.17-3.68 67.55-0.7 71.3-0.7 75.05-0.7 77.55-3.95 80.05-7.2 80.05-12.75 80.05-18.3 77.67-21.3 75.3-24.3 71.55-24.3ZM94.64-0.6L94.64-0.6Q94.94-0.6 95.24-0.65L95.24-0.65Q97.84-0.7 99.59-2.27 101.34-3.85 101.34-6.9L101.34-6.9Q101.34-9.9 96.64-11.25L96.64-11.25Q94.69-11.8 92.74-12.45 90.79-13.1 89.42-14.5 88.04-15.9 88.04-18.15L88.04-18.15Q88.04-21.35 90.49-23.28 92.94-25.2 96.69-25.2L96.69-25.2Q99.49-25.2 102.34-24.2L102.34-24.2 103.24-23.85 103.24-18.1 102.29-17.75 102.09-22Q99.19-24.3 97.24-24.3L97.24-24.3Q94.49-24.3 92.89-22.68 91.29-21.05 91.29-18.35L91.29-18.35Q91.29-16.8 92.67-15.85 94.04-14.9 95.99-14.35 97.94-13.8 99.89-13.13 101.84-12.45 103.22-10.93 104.59-9.4 104.59-6.95L104.59-6.95Q104.59-3.65 102.12-1.73 99.64 0.2 95.09 0.2 90.54 0.2 87.54-1.95L87.54-1.95 87.54-7.7 88.44-8.05 88.69-3.8Q89.39-2.5 91.22-1.55 93.04-0.6 94.64-0.6ZM118.89-0.95L118.89-0.95 120.84-1.05 120.99-0.55Q120.94-0.55 120.29-0.4L120.29-0.4Q118.79-0.05 116.94-0.05L116.94-0.05Q115.24-0.15 113.84-0.63 112.44-1.1 111.24-2.63 110.04-4.15 110.04-6.55L110.04-6.55 110.04-24.1 107.49-24.1 107.89-24.5 110.09-24.95 110.49-29.75 113.29-30 113.29-25 119.34-25 119.34-24.1 113.29-24.1 113.29-7.4Q113.29-3.6 114.89-2.27 116.49-0.95 118.89-0.95ZM156.49-34.95L166.24-35Q166.24-34.95 166.29-34.25L166.29-34.25 162.04-33.85 149.89-19.7 164.69-0.9 167.04-0.75Q167.04-0.7 166.99 0L166.99 0 161.59 0.05 147.14-18.2 147.09-18.25 147.09-0.95 150.49-0.75Q150.49-0.7 150.44 0L150.44 0 140.44 0.05Q140.44-0.4 140.49-0.65L140.49-0.65 143.09-1Q143.59-1.05 143.69-1.65L143.69-1.65 143.69-33.3Q143.49-33.9 143.09-33.95L143.09-33.95 140.49-34.2Q140.44-34.5 140.44-34.95L140.44-34.95 150.44-35Q150.44-34.95 150.49-34.25L150.49-34.25 147.09-33.95 147.09-18.3 147.19-18.35 159.44-33Q159.84-33.8 159.14-33.95L159.14-33.95 156.54-34.2Q156.49-34.5 156.49-34.95L156.49-34.95ZM147.09-18.25L147.09-18.3 147.09-18.25ZM179.01 0.2Q173.78 0.2 170.56-2.8 167.33-5.8 167.33-11.98 167.33-18.15 170.76-21.68 174.18-25.2 179.38-25.2 184.58-25.2 187.83-22.2 191.08-19.2 191.08-13.03 191.08-6.85 187.66-3.33 184.23 0.2 179.01 0.2ZM179.33-24.3Q175.58-24.3 173.08-21.05 170.58-17.8 170.58-12.23 170.58-6.65 172.96-3.68 175.33-0.7 179.08-0.7 182.83-0.7 185.33-3.95 187.83-7.2 187.83-12.75 187.83-18.3 185.46-21.3 183.08-24.3 179.33-24.3ZM210.83-1.9L210.83-1.9 210.68-1.9Q206.18 0.2 201.93 0.2L201.93 0.2Q195.28 0.2 194.88-5.05L194.88-5.05Q194.83-5.4 194.83-5.7L194.83-5.7Q194.83-9.55 199.88-10.85L199.88-10.85Q202.88-11.5 210.68-12.4L210.68-12.4 210.68-16.8Q210.68-18.9 210.18-20.4 209.68-21.9 209.08-22.63 208.48-23.35 207.53-23.75L207.53-23.75Q206.33-24.25 204.86-24.25 203.38-24.25 201.48-23.5L201.48-23.5Q198.73-22.35 196.58-20.6L196.58-20.6 196.38-16.7 195.43-16.45 195.43-22.5 195.93-22.7Q199.83-24.4 201.88-24.75 203.93-25.1 204.88-25.13 205.83-25.15 206.71-25.1 207.58-25.05 208.98-24.65 210.38-24.25 211.41-23.53 212.43-22.8 213.18-21.35 213.93-19.9 213.93-17.9L213.93-17.9 213.93-2.6Q213.93-1.05 214.73-1.05L214.73-1.05 217.78-0.9 217.73-0.15Q214.93 0.25 212.73 0.25L212.73 0.25Q212.13 0.2 211.48-0.38 210.83-0.95 210.83-1.9ZM202.83-0.6L202.83-0.6Q206.53-0.6 210.68-3.2L210.68-3.2 210.68-11.45Q203.18-11.2 201.26-10.58 199.33-9.95 198.61-8.63 197.88-7.3 197.88-6L197.88-6Q197.88-5.75 197.88-5.5L197.88-5.5Q198.03-2.9 199.43-1.75 200.83-0.6 202.83-0.6ZM230.08 0L220.03 0.05 220.08-0.65 222.68-1Q223.03-1.05 223.13-1.5L223.13-1.5 223.13-35.7Q223.13-36.25 222.83-36.25L222.83-36.25 219.78-36.35 219.83-37.05Q222.98-37.5 224.15-37.5 225.33-37.5 225.85-36.85 226.38-36.2 226.38-35.45L226.38-35.45 226.38-1 230.13-0.75Q230.13-0.7 230.08 0L230.08 0ZM249.63-1.9L249.63-1.9 249.48-1.9Q244.98 0.2 240.73 0.2L240.73 0.2Q234.08 0.2 233.68-5.05L233.68-5.05Q233.63-5.4 233.63-5.7L233.63-5.7Q233.63-9.55 238.68-10.85L238.68-10.85Q241.68-11.5 249.48-12.4L249.48-12.4 249.48-16.8Q249.48-18.9 248.98-20.4 248.48-21.9 247.88-22.63 247.28-23.35 246.33-23.75L246.33-23.75Q245.13-24.25 243.65-24.25 242.18-24.25 240.28-23.5L240.28-23.5Q237.53-22.35 235.38-20.6L235.38-20.6 235.18-16.7 234.23-16.45 234.23-22.5 234.73-22.7Q238.63-24.4 240.68-24.75 242.73-25.1 243.68-25.13 244.63-25.15 245.5-25.1 246.38-25.05 247.78-24.65 249.18-24.25 250.2-23.53 251.23-22.8 251.98-21.35 252.73-19.9 252.73-17.9L252.73-17.9 252.73-2.6Q252.73-1.05 253.53-1.05L253.53-1.05 256.58-0.9 256.53-0.15Q253.73 0.25 251.53 0.25L251.53 0.25Q250.93 0.2 250.28-0.38 249.63-0.95 249.63-1.9ZM241.63-0.6L241.63-0.6Q245.33-0.6 249.48-3.2L249.48-3.2 249.48-11.45Q241.98-11.2 240.05-10.58 238.13-9.95 237.4-8.63 236.68-7.3 236.68-6L236.68-6Q236.68-5.75 236.68-5.5L236.68-5.5Q236.83-2.9 238.23-1.75 239.63-0.6 241.63-0.6ZM273.67-34.95L282.72-35Q282.72-34.95 282.77-34.25L282.77-34.25 280.82-34 280.82 0Q280.97 6 273.62 12.4L273.62 12.4 273.02 11.95Q277.47 5.9 277.42 0L277.42 0 277.42-33.4Q277.32-33.85 276.82-33.95L276.82-33.95 273.72-34.2 273.67-34.95ZM297.19 0.2Q291.97 0.2 288.74-2.8 285.52-5.8 285.52-11.98 285.52-18.15 288.94-21.68 292.37-25.2 297.57-25.2 302.77-25.2 306.02-22.2 309.27-19.2 309.27-13.03 309.27-6.85 305.84-3.33 302.42 0.2 297.19 0.2ZM297.52-24.3Q293.77-24.3 291.27-21.05 288.77-17.8 288.77-12.23 288.77-6.65 291.14-3.68 293.52-0.7 297.27-0.7 301.02-0.7 303.52-3.95 306.02-7.2 306.02-12.75 306.02-18.3 303.64-21.3 301.27-24.3 297.52-24.3ZM318.62-35.45L318.62-35.45 318.62-23Q321.62-25.45 325.32-25.45L325.32-25.45Q328.72-25.45 331.72-23.35L331.72-23.35Q333.32-22.2 334.29-19.75 335.27-17.3 335.27-13.8L335.27-13.8Q335.27-7.15 331.97-3.8L331.97-3.8Q328.22 0 322.47 0L322.47 0Q320.32 0 318.19-0.35 316.07-0.7 315.37-1.15L315.37-1.15 315.37-35.85Q315.27-36.25 315.07-36.25L315.07-36.25 312.02-36.35 312.07-37.05Q315.22-37.5 316.39-37.5 317.57-37.5 318.09-36.85 318.62-36.2 318.62-35.45ZM318.62-22.05L318.62-22.05 318.62-0.9Q319.97-0.45 321.77-0.45L321.77-0.45Q326.67-0.45 329.34-3.9 332.02-7.35 332.02-13.55L332.02-13.55Q332.02-20.35 329.32-22.7L329.32-22.7Q327.22-24.55 324.47-24.55 321.72-24.55 318.62-22.05ZM345.86-0.6L345.86-0.6Q346.16-0.6 346.46-0.65L346.46-0.65Q349.06-0.7 350.81-2.27 352.56-3.85 352.56-6.9L352.56-6.9Q352.56-9.9 347.86-11.25L347.86-11.25Q345.91-11.8 343.96-12.45 342.01-13.1 340.64-14.5 339.26-15.9 339.26-18.15L339.26-18.15Q339.26-21.35 341.71-23.28 344.16-25.2 347.91-25.2L347.91-25.2Q350.71-25.2 353.56-24.2L353.56-24.2 354.46-23.85 354.46-18.1 353.51-17.75 353.31-22Q350.41-24.3 348.46-24.3L348.46-24.3Q345.71-24.3 344.11-22.68 342.51-21.05 342.51-18.35L342.51-18.35Q342.51-16.8 343.89-15.85 345.26-14.9 347.21-14.35 349.16-13.8 351.11-13.13 353.06-12.45 354.44-10.93 355.81-9.4 355.81-6.95L355.81-6.95Q355.81-3.65 353.34-1.73 350.86 0.2 346.31 0.2 341.76 0.2 338.76-1.95L338.76-1.95 338.76-7.7 339.66-8.05 339.91-3.8Q340.61-2.5 342.44-1.55 344.26-0.6 345.86-0.6Z" opacity="1" transform="matrix(1,0,0,1,0,0)" fill="#ffffff" class="wordmark-text-0" data-fill-palette-color="primary" id="text-0"></path></svg></g></svg></g></svg></g></svg></g><g transform="matrix(1,0,0,1,131.89462669292806,0)"><svg viewBox="0 0 131.73074661414384 131.73074661414384" height="131.73074661414384" width="131.73074661414384"><g><svg></svg></g><g id="icon-0"><svg viewBox="0 0 131.73074661414384 131.73074661414384" height="131.73074661414384" width="131.73074661414384"><g><path d="M0 65.865c0-36.376 29.489-65.865 65.865-65.865 36.376 0 65.865 29.489 65.866 65.865 0 36.376-29.489 65.865-65.866 65.866-36.376 0-65.865-29.489-65.865-65.866zM65.865 126.701c33.598 0 60.835-27.237 60.836-60.836 0-33.598-27.237-60.835-60.836-60.835-33.598 0-60.835 27.237-60.835 60.835 0 33.598 27.237 60.835 60.835 60.836z" data-fill-palette-color="tertiary" fill="#ffffff" stroke="transparent"></path></g><g transform="matrix(1,0,0,1,40.39955550049976,31.490197433006472)"><svg viewBox="0 0 50.93163561314432 68.7503517481309" height="68.7503517481309" width="50.93163561314432"><g><svg xmlns="http://www.w3.org/2000/svg" xml:space="preserve" viewBox="12.959999954772613 0 74.08200004522739 100" x="0" y="0" height="68.7503517481309" width="50.93163561314432" class="icon-dxe-0" data-fill-palette-color="accent" id="dxe-0"><path d="M50 0C24.563 0 12.96 50.003 12.96 66.604 12.959 85.05 29.541 100 50 100s37.042-14.95 37.042-33.396C87.041 52.016 74.159 0 50 0M39.488 34.323c-3.556 0-6.437-1.577-6.437-3.521s2.881-3.52 6.437-3.52c3.561 0 6.446 1.576 6.446 3.52s-2.886 3.521-6.446 3.521m21.025 0c-3.561 0-6.447-1.577-6.447-3.521s2.887-3.52 6.447-3.52c3.555 0 6.44 1.576 6.44 3.52s-2.886 3.521-6.44 3.521" fill="#ffffff" data-fill-palette-color="accent"></path></svg></g></svg></g></svg></g></svg></g><g></g></svg></g><defs></defs></svg><rect width="395.5199999999999" height="213.84195587257534" fill="none" stroke="none" visibility="hidden"></rect></g></svg></g></svg>